<?xml version="1.0" encoding="UTF-8"?>
<svg xmlns="http://www.w3.org/2000/svg" xmlns:xlink="http://www.w3.org/1999/xlink" version="1.1" viewBox="0 0 868.4 215.2">
  <!-- Generator: Adobe Illustrator 29.1.0, SVG Export Plug-In . SVG Version: 2.1.0 Build 142)  -->
  <defs>
    <style>
      .st0 {
        fill: url(#radial-gradient);
      }

      .st1 {
        fill: #7bc7ed;
      }

      .st2 {
        fill: #bccc7a;
      }

      .st3 {
        fill: url(#radial-gradient1);
      }

      .st4 {
        fill: url(#radial-gradient3);
      }

      .st5 {
        fill: url(#radial-gradient2);
      }

      .st6 {
        fill: url(#radial-gradient5);
      }

      .st7 {
        fill: url(#radial-gradient4);
      }

      .st8 {
        fill: #494949;
      }

      .st9 {
        fill: #ff8e71;
      }

      .st10 {
        display: none;
      }
    </style>
    <radialGradient id="radial-gradient" cx="109.9" cy="1390.6" fx="109.9" fy="1273.2" r="117.4" gradientTransform="translate(0 -1282)" gradientUnits="userSpaceOnUse">
      <stop offset=".5" stop-color="#b3c681"/>
      <stop offset=".6" stop-color="#b0c47f"/>
      <stop offset=".7" stop-color="#a6be7a"/>
      <stop offset=".8" stop-color="#96b472"/>
      <stop offset=".9" stop-color="#7fa666"/>
      <stop offset="1" stop-color="#739f60"/>
    </radialGradient>
    <radialGradient id="radial-gradient1" cx="110.1" cy="1391.4" fx="110.1" fy="1287.5" r="103.9" gradientTransform="translate(0 -1282)" gradientUnits="userSpaceOnUse">
      <stop offset=".4" stop-color="#78c8ef"/>
      <stop offset=".6" stop-color="#78c5ee"/>
      <stop offset=".8" stop-color="#78bbed"/>
      <stop offset=".9" stop-color="#78abec"/>
      <stop offset="1" stop-color="#78a3ec"/>
    </radialGradient>
    <radialGradient id="radial-gradient2" cx="109.5" cy="1390.8" fx="109.5" fy="1295.1" r="102.9" gradientTransform="translate(0 -1282)" gradientUnits="userSpaceOnUse">
      <stop offset=".5" stop-color="#ff8f71"/>
      <stop offset=".7" stop-color="#fc8d70"/>
      <stop offset=".8" stop-color="#f2886f"/>
      <stop offset=".9" stop-color="#e27f6c"/>
      <stop offset="1" stop-color="#cf756a"/>
    </radialGradient>
    <radialGradient id="radial-gradient3" cx="115.9" cy="95.4" fx="115.9" fy="-18.2" r="113.6" gradientTransform="translate(0 218) scale(1 -1)" xlink:href="#radial-gradient"/>
    <radialGradient id="radial-gradient4" cx="116" cy="122.5" fx="116" fy="30.4" r="92.1" gradientTransform="translate(55.5 55.9) rotate(85.3) scale(1 -1)" xlink:href="#radial-gradient1"/>
    <radialGradient id="radial-gradient5" cx="115.5" cy="110.6" fx="115.5" fy="18.9" r="98.6" gradientTransform="translate(0 218) scale(1 -1)" xlink:href="#radial-gradient2"/>
  </defs>
  <g id="Layer_1">
    <g id="Layer_11" data-name="Layer_1">
      <g>
        <path class="st8" d="M276.9,103.3h-26.4v-3.4c2.9-1.3,5.7-2.2,8.6-2.8l30.1-78.4h3.5l30.1,78.4c1.6.3,3.1.7,4.7,1.1,1.5.4,3,1,4.3,1.8v3.4h-30.7v-3.4c1.6-.6,3.2-1.2,4.9-1.7,1.7-.5,3.3-.9,4.9-1.2l-8-21.8h-28.3l-7.8,21.8c3.3.5,6.7,1.4,10.2,2.8v3.4h-.1ZM276.8,69h23.9l-9.3-25.2-2.2-10.2h-.2l-3,10.5-9.1,25h0Z"/>
        <path class="st8" d="M396.8,103.3h-25.4v-3c.8-.5,1.8-1,2.9-1.5s2.5-1,4.1-1.4v-27.5c0-3.2-.1-6-.4-8.6s-.8-4.7-1.5-6.4c-.8-1.7-1.8-3-3.3-3.9-1.4-.9-3.3-1.4-5.6-1.4s-3.4.4-4.8,1.1-2.8,1.7-3.9,2.8c-1.1,1.2-2.1,2.5-3,4-.8,1.5-1.5,3.1-2,4.8v35c1.3.4,2.5.8,3.6,1.2s2.3,1,3.4,1.6v3h-25.6v-3c1.1-.6,2.3-1.1,3.7-1.6s2.7-.9,4.2-1.3v-46.7l-7.9-1v-3.1c2.5-1.1,5.1-2,7.8-2.7,2.6-.7,5.2-1.2,7.8-1.6h3v13.4h.1c1.3-3.7,3.4-6.9,6.5-9.5,3-2.6,6.8-3.9,11.4-3.9s3.7.2,5.5.6c1.7.4,3.4,1.1,4.9,2.2,1.5,1.1,2.8,2.6,3.8,4.5s1.8,4.4,2.3,7.4c1.4-4.4,3.7-7.9,6.9-10.6,3.2-2.7,7.1-4,11.9-4s5.5.4,7.7,1.1c2.2.8,4,2.1,5.4,4s2.5,4.5,3.1,7.7c.7,3.2,1,7.4,1,12.4v29.8c2.7.5,5.3,1.4,7.9,2.8v3h-25.6v-3c2.4-1.3,4.7-2.2,7-2.8v-29.6c0-2.8-.1-5.4-.4-7.6s-.8-4.1-1.6-5.7c-.8-1.5-1.9-2.7-3.3-3.6-1.4-.8-3.3-1.2-5.7-1.2-3.8,0-6.8,1.3-8.9,3.9-2.1,2.6-3.6,5.9-4.6,10v33.8c2.8.8,5.4,1.7,7.7,2.8v3h0v.3Z"/>
        <path class="st8" d="M439.3,49.8c-1.2-.3-2.3-.7-3.3-1.2s-2-1-3-1.7v-3.1h25v3c-1.7,1.1-3.9,2.1-6.8,3l15.1,35.2,2.2,7.4h.2l1.8-7.5,11.3-35.1c-2.4-.5-4.6-1.4-6.5-2.8v-3.1h20.3v3.1c-1.7,1.1-3.9,2.1-6.8,2.8l-18.5,53.5c-1.9,5.1-3.7,9.2-5.4,12.3-1.7,3.1-3.4,5.6-5.1,7.4s-3.5,3.2-5.2,4-3.7,1.4-5.8,1.8c-.9-1.5-1.6-3.2-2.3-5s-1.2-3.6-1.7-5.2l1.5-2.8h12.4c.5-.6.9-1.2,1.2-1.8s.7-1.3,1.1-2.2c.4-.9.8-2,1.3-3.3s1-3.1,1.7-5.1l-24.7-53.5h0Z"/>
        <path class="st8" d="M526.7,103.3v-3.4c2.8-1.3,6-2.2,9.8-2.8V26.5c-1.8-.4-3.6-.9-5.2-1.4-1.7-.5-3.2-1-4.5-1.6v-3.5h12.1c1.3,0,2.9,0,4.8-.1,1.8,0,3.7-.2,5.7-.3,1.9-.1,3.8-.2,5.6-.4s3.3-.2,4.5-.2c13.5,0,23.8,3.6,31.1,10.8,7.2,7.2,10.9,17.4,10.9,30.7s-.9,12.1-2.7,17.4-4.5,10-8.1,13.8c-3.7,3.9-8.3,6.9-13.8,9.2-5.6,2.2-12.2,3.3-19.8,3.3s-2.5,0-4-.2c-1.5,0-3.1-.2-4.8-.4s-3.3-.2-5-.4c-1.7,0-3.3-.2-4.8-.2h-11.4l-.4.3ZM557.6,25.3h-5.9c-1.9,0-3.4.2-4.5.4v72.1c.4,0,1.1,0,2.1.2s2.1,0,3.3,0,2.3,0,3.4,0h2.3c5.5,0,10.1-1,13.9-3.1s6.9-4.8,9.3-8.3c2.4-3.4,4.2-7.4,5.3-11.9s1.7-9.3,1.7-14.3-.5-7.9-1.6-12.1-2.8-8-5.2-11.4c-2.4-3.5-5.6-6.3-9.6-8.5s-8.8-3.3-14.5-3.3h0Z"/>
        <path class="st8" d="M612.3,73.6c0-5,.7-9.4,2-13.3,1.3-3.8,3.2-7.1,5.7-9.8s5.4-4.7,8.9-6.1c3.5-1.4,7.3-2.1,11.5-2.1s9.2.8,12.7,2.3c3.6,1.5,6.5,3.6,8.7,6.4,2.3,2.7,3.9,6,5,9.8,1.1,3.8,1.6,8.1,1.6,12.7,0,10-2.5,17.7-7.6,23.1s-11.9,8.1-20.5,8.1-8.9-.7-12.4-2.2-6.4-3.6-8.7-6.3-4-6-5.2-9.9c-1.2-3.8-1.7-8.1-1.7-12.8h0ZM623.7,73.6c0,3.6.3,6.9,1,10.1s1.7,5.9,3.2,8.3c1.5,2.3,3.4,4.2,5.8,5.5s5.2,2,8.6,2,7.8-2.1,10.5-6.3c2.7-4.2,4.1-10.7,4.1-19.6s-.3-7-1-10.2c-.7-3.1-1.7-5.9-3.2-8.2-1.4-2.3-3.2-4.2-5.5-5.5s-4.9-2-8-2c-4.7,0-8.4,2.1-11.3,6.3-2.8,4.2-4.3,10.7-4.3,19.6h.1Z"/>
        <path class="st8" d="M708.2,89.7c0-2.2-.7-4.1-2.1-5.7s-3.2-3-5.3-4.3-4.4-2.7-6.8-3.9c-2.4-1.3-4.7-2.8-6.8-4.5s-3.9-3.7-5.3-5.9c-1.4-2.2-2.1-5-2.1-8.2s.5-4.1,1.5-5.9c1-1.8,2.3-3.4,4-4.7s3.6-2.3,5.8-3.1,4.6-1.1,7.1-1.1c4.3,0,7.8.2,10.5.7s5.4,1.2,7.9,2c-.3,2.5-.7,5.1-1.1,7.7-.4,2.6-1,5.2-1.8,7.9h-3l-4.5-12.1c-1-.4-2-.7-3.2-.8s-2.4-.2-3.7-.2-2.7.3-3.8.8-2,1.2-2.7,2-1.3,1.7-1.7,2.7-.6,2.1-.6,3.1c0,2.1.7,4,2.1,5.5s3.2,3,5.3,4.3,4.4,2.6,6.8,3.9c2.4,1.3,4.7,2.7,6.8,4.3,2.1,1.6,3.9,3.4,5.3,5.5,1.4,2.1,2.1,4.6,2.1,7.6s-.6,5.1-1.7,7.2c-1.2,2.1-2.7,4-4.8,5.5-2,1.5-4.4,2.7-7,3.5-2.7.8-5.5,1.2-8.5,1.2s-6.5-.3-9.4-.9c-2.8-.6-5.8-1.4-8.9-2.6.2-2.8.5-5.6,1.1-8.3s1.3-5.2,2.1-7.7h3l5.2,13c.9.6,1.9,1,3.2,1.1,1.2,0,2.4,0,3.4,0,3.5,0,6.3-.9,8.4-2.8s3.2-4.2,3.2-6.9h0Z"/>
        <path class="st8" d="M726.4,46.8c3-2,6.2-3.4,9.5-4.2v-10.1c1-.8,2.2-1.6,3.6-2.3,1.4-.8,2.8-1.4,4.1-2h3v15.6h17.8v6.2h-17.8v34.3c0,4.7.8,8.1,2.3,10.1s3.8,3,6.8,3,3.2,0,5.3-.3c2.1-.2,4-.6,5.5-1.1l.8,1.8c-.6.7-1.5,1.5-2.7,2.3s-2.5,1.6-3.9,2.3c-1.5.7-3.1,1.3-4.8,1.8s-3.5.7-5.3.7c-4.8,0-8.4-1.3-10.9-4s-3.8-7-3.8-13v-37.7h-9.5v-3.2h0v-.2Z"/>
        <path class="st8" d="M817.5,87.7c0,1.7,0,3.2,0,4.5s.2,2.6.2,4l8.2,1.2v2.5c-2,1-4.2,1.9-6.6,2.7s-4.7,1.4-7,1.8h-3c-.8-1.8-1.3-3.8-1.4-6s-.3-4.6-.4-7.2h-.6c-.3,1.6-.9,3.2-1.8,4.8-.9,1.6-2.1,3.1-3.6,4.3-1.5,1.3-3.2,2.3-5.2,3.1-2,.8-4.2,1.2-6.8,1.2-4.8,0-8.8-1.5-11.8-4.4s-4.6-6.8-4.6-11.5.7-6.6,2.2-9c1.5-2.3,3.6-4.2,6.5-5.5s6.4-2.3,10.6-2.9c4.2-.6,9.1-1.1,14.6-1.4.3-3.4.4-6.5.3-9.2s-.6-5.1-1.3-7c-.8-1.9-1.9-3.5-3.3-4.5-1.5-1.1-3.4-1.6-5.8-1.6s-2.4,0-3.8.2-2.8.5-4.1,1l-5.6,14.3h-3.1c-.8-2.4-1.5-4.8-2.1-7.4s-1-5-1.1-7.5c3-1.8,6.4-3.2,10-4.3s7.8-1.5,12.3-1.5,7.3.6,9.7,1.7c2.4,1.2,4.3,2.6,5.5,4.5s2.1,3.8,2.5,6.1c.4,2.2.6,4.4.6,6.7,0,4.8,0,9.3-.3,13.7s-.3,8.6-.3,12.7h.3ZM794.5,97.3c2,0,3.7-.4,5.2-1.2,1.5-.8,2.8-1.7,3.8-2.8,1-1.1,1.9-2.2,2.5-3.4.6-1.2,1.1-2.1,1.3-2.9v-12.5c-4.6,0-8.4.2-11.3.7-2.9.5-5.2,1.2-6.9,2.3-1.7,1-2.8,2.3-3.5,3.9-.6,1.6-1,3.3-1,5.3,0,3.4.9,6.1,2.6,7.9,1.7,1.9,4.1,2.8,7.1,2.8h.2Z"/>
        <path class="st8" d="M860.1,103.3h-26.4v-3c2.6-1.3,5.2-2.2,7.8-2.8V22.2l-9-1v-3.1c2.1-1,4.6-1.8,7.7-2.5,3.1-.7,6.1-1.3,9-1.8h3v83.6c2.6.6,5.2,1.6,7.8,2.8v3h.1Z"/>
      </g>
      <g>
        <path class="st8" d="M264.9,185.5c1.5.2,2.8.4,4.1.8,1.3.4,2.5.7,3.6,1.2v2.4h-22.2v-2.4c1.1-.5,2.2-.9,3.3-1.2s2.2-.5,3.3-.7v-48.1c-1.2-.2-2.4-.5-3.5-.9s-2.1-.7-3.2-1.2v-2.4h7.3c2.2,0,4.5-.1,7-.3s5-.3,7.3-.3,5.2.3,7.8.9,4.8,1.5,6.8,2.9,3.6,3.1,4.8,5.4c1.2,2.2,1.8,5,1.8,8.4s-.6,5.9-1.9,8.2-2.9,4.1-5,5.6-4.4,2.5-7.1,3.2c-2.6.7-5.4,1-8.2,1h-3.1c-.6,0-1.3,0-1.9-.1-.6,0-1-.1-1.3-.2v17.9h.3ZM270.4,136.6h-3.2c-.8,0-1.6.2-2.4.3v26.3c.3.1.7.2,1.2.2s1,0,1.6.1h3c1.9,0,3.7-.3,5.4-.8,1.7-.5,3.1-1.3,4.4-2.5,1.3-1.1,2.3-2.6,3-4.3s1.1-3.8,1.1-6.2c0-4.4-1.3-7.8-3.8-10s-6-3.3-10.4-3.3h0v.2Z"/>
        <path class="st8" d="M320.3,180.6c0-1.5-.5-2.8-1.4-3.9s-2.1-2-3.6-3c-1.5-.9-3-1.8-4.7-2.7s-3.2-1.9-4.7-3c-1.5-1.2-2.7-2.5-3.6-4-1-1.5-1.4-3.4-1.4-5.6s.3-2.8,1-4.1,1.6-2.3,2.7-3.2,2.5-1.6,4-2.1,3.1-.8,4.9-.8c2.9,0,5.3.2,7.2.5s3.7.8,5.4,1.4c-.2,1.7-.5,3.5-.8,5.2s-.7,3.6-1.3,5.4h-2l-3.1-8.3c-.6-.3-1.4-.4-2.2-.5s-1.6-.1-2.5-.1-1.8.2-2.5.5c-.7.4-1.4.8-1.9,1.3s-.9,1.2-1.2,1.9c-.3.7-.4,1.4-.4,2.1,0,1.5.5,2.7,1.4,3.8s2.1,2,3.6,2.9,3,1.8,4.7,2.6c1.6.9,3.2,1.8,4.7,2.9s2.7,2.3,3.6,3.8c.9,1.4,1.4,3.1,1.4,5.1s-.4,3.5-1.2,4.9c-.8,1.5-1.9,2.7-3.2,3.7s-3,1.8-4.8,2.4c-1.8.6-3.7.9-5.8.9s-4.5-.2-6.4-.6-4-1-6.1-1.7c.1-1.9.4-3.8.7-5.6s.9-3.6,1.5-5.2h2l3.6,8.8c.6.4,1.3.7,2.1.7h2.3c2.4,0,4.3-.6,5.8-1.9,1.5-1.3,2.2-2.9,2.2-4.7h0v.2Z"/>
        <path class="st8" d="M334.9,153.3c-.8-.2-1.5-.5-2.2-.8s-1.4-.7-2.1-1.1v-2.1h17v2c-1.1.8-2.7,1.4-4.6,2l10.3,24,1.5,5h.2l1.2-5.1,7.7-23.9c-1.6-.3-3.1-1-4.5-1.9v-2.1h13.9v2.1c-1.1.8-2.7,1.4-4.6,1.9l-12.6,36.5c-1.3,3.5-2.5,6.2-3.7,8.4-1.2,2.1-2.3,3.8-3.5,5.1-1.2,1.2-2.4,2.1-3.6,2.7-1.2.6-2.5,1-3.9,1.3-.6-1-1.1-2.2-1.6-3.4s-.9-2.4-1.2-3.6l1-1.9h8.4c.3-.4.6-.9.9-1.3.2-.4.5-.9.8-1.5s.6-1.4.9-2.3.7-2.1,1.1-3.5l-16.9-36.5h.1Z"/>
        <path class="st8" d="M407,184.1c-1,1.9-2.5,3.5-4.7,4.7s-4.7,1.9-7.7,1.9-6-.5-8.3-1.5-4.3-2.4-5.9-4.3c-1.6-1.9-2.7-4.1-3.5-6.7-.8-2.6-1.2-5.5-1.2-8.7,0-6.9,1.7-12.1,5-15.8,3.4-3.6,7.9-5.5,13.7-5.5s5,.2,7.1.7,3.9,1.1,5.3,1.8c-.2,1.8-.5,3.8-.9,6s-1,4.1-1.6,5.5h-2.2l-3.4-9.6c-.4-.3-.8-.5-1.3-.6s-1.3-.2-2.4-.2c-3.7,0-6.5,1.3-8.5,4s-3,7.2-3,13.6.3,4.1.9,6,1.4,3.7,2.6,5.2,2.6,2.8,4.4,3.7,3.8,1.4,6.1,1.4,3.5-.3,4.9-.8,2.6-1.2,3.6-1.9l1,1.1h0Z"/>
        <path class="st8" d="M456.4,189.8h-17.5v-2c1.3-.7,2.9-1.4,4.9-1.9v-19c0-4.2-.6-7.5-1.8-9.9-1.2-2.4-3.4-3.6-6.5-3.6s-2.7.3-3.8.8c-1.1.5-2.2,1.2-3.1,2s-1.7,1.7-2.4,2.8c-.6,1.1-1.1,2.1-1.5,3.3v23.7c.9.2,1.7.5,2.5.7.8.3,1.5.7,2.3,1.2v2h-17.4v-2c1.7-.9,3.5-1.5,5.4-1.9v-51.3l-6.2-.6v-2.1c1.6-.6,3.4-1.2,5.5-1.7s4.1-.9,6-1.2h2v28.6h0c1.1-2.5,2.8-4.7,4.9-6.5s4.7-2.7,7.7-2.7,4.1.3,5.8.8c1.7.5,3.1,1.4,4.2,2.7s2,3,2.6,5.2.9,5,.9,8.3v20.5c.9.2,1.8.5,2.8.7.9.3,1.8.7,2.6,1.2v2h.1Z"/>
        <path class="st8" d="M461.1,169.5c0-3.4.5-6.4,1.3-9,.9-2.6,2.2-4.8,3.9-6.6,1.7-1.8,3.7-3.2,6-4.1s5-1.4,7.8-1.4,6.2.5,8.7,1.5c2.4,1,4.4,2.5,6,4.3,1.5,1.9,2.7,4.1,3.4,6.7.7,2.6,1.1,5.5,1.1,8.7,0,6.8-1.7,12.1-5.2,15.7s-8.1,5.5-13.9,5.5-6-.5-8.4-1.5-4.4-2.4-5.9-4.3c-1.6-1.9-2.7-4.1-3.5-6.7-.8-2.6-1.2-5.5-1.2-8.7h0ZM468.9,169.5c0,2.4.2,4.7.7,6.9s1.2,4,2.2,5.6,2.3,2.9,3.9,3.8,3.6,1.4,5.8,1.4,5.3-1.4,7.2-4.3c1.9-2.9,2.8-7.3,2.8-13.4s-.2-4.8-.7-6.9c-.5-2.1-1.2-4-2.1-5.6s-2.2-2.9-3.7-3.8-3.3-1.4-5.4-1.4c-3.2,0-5.8,1.4-7.7,4.3-1.9,2.9-2.9,7.3-2.9,13.4h0Z"/>
        <path class="st8" d="M523.9,189.8h-18v-2c1.8-.9,3.6-1.5,5.4-1.9v-51.3l-6.2-.6v-2.1c1.4-.6,3.2-1.2,5.3-1.7,2.1-.5,4.2-.9,6.2-1.2h2v57c1.8.4,3.6,1.1,5.3,1.9v2h0Z"/>
        <path class="st8" d="M530.3,169.5c0-3.4.5-6.4,1.3-9,.9-2.6,2.2-4.8,3.8-6.6,1.7-1.8,3.7-3.2,6-4.1s5-1.4,7.8-1.4,6.2.5,8.7,1.5,4.4,2.5,6,4.3c1.5,1.9,2.7,4.1,3.4,6.7.7,2.6,1.1,5.5,1.1,8.7,0,6.8-1.7,12.1-5.2,15.7s-8.1,5.5-13.9,5.5-6-.5-8.4-1.5-4.3-2.4-5.9-4.3c-1.6-1.9-2.7-4.1-3.5-6.7s-1.2-5.5-1.2-8.7h0ZM538.1,169.5c0,2.4.2,4.7.7,6.9s1.2,4,2.2,5.6,2.3,2.9,3.9,3.8,3.6,1.4,5.8,1.4,5.3-1.4,7.2-4.3c1.9-2.9,2.8-7.3,2.8-13.4s-.2-4.8-.7-6.9c-.5-2.1-1.2-4-2.2-5.6s-2.2-2.9-3.7-3.8-3.3-1.4-5.4-1.4c-3.2,0-5.8,1.4-7.7,4.3-1.9,2.9-2.9,7.3-2.9,13.4h0Z"/>
        <path class="st8" d="M591.8,148.3c2.9,0,5.4.3,7.4.9,2,.6,3.7,1.4,5,2.6,3.2-2.2,6.5-3.7,10-4.7.4.6.7,1.3.9,2.2s.3,1.7.3,2.4l-1,1.9h-8.5c1.3,1.9,2,4.5,2,7.7s-1.4,7.1-4.1,9.5c-2.7,2.4-6.7,3.6-12,3.6s-1.9,0-2.5,0-1.4-.1-2.2-.2c-.3.5-.6,1-.9,1.6-.3.6-.5,1.2-.5,1.9,0,1.1.6,1.9,1.9,2.6,1.2.6,2.8,1.2,4.7,1.7s3.9,1,6.1,1.5,4.2,1.2,6.1,2.1,3.5,2.1,4.7,3.5c1.3,1.4,1.9,3.3,2,5.6,0,1.9-.4,3.7-1.3,5.3s-2.3,2.9-3.9,3.9c-1.7,1.1-3.7,1.9-6,2.4-2.3.6-4.9.9-7.7.9-5.9,0-10.3-1-13.3-3s-4.5-4.5-4.5-7.5.2-2.7.7-3.8,1.1-2,2-2.8,2-1.5,3.2-2.1c1.3-.6,2.8-1.2,4.5-1.7-1.2-.5-2.2-1.3-3-2.2s-1.2-2.1-1.2-3.4.5-2.5,1.6-3.7,2.1-2.2,3.2-2.9c-3.1-.8-5.4-2.4-7.1-4.6-1.7-2.3-2.5-4.8-2.5-7.7s.3-3.6,1-5.1c.7-1.6,1.7-3,3.1-4.2,1.3-1.2,3-2.1,5-2.8s4.3-1,7-1h0l-.2-.4ZM603.8,196.4c0-1.7-.6-3.1-1.7-4.1-1.2-1-2.6-1.9-4.3-2.5s-3.6-1.2-5.6-1.6-3.9-.9-5.6-1.5c-2,1.2-3.4,2.6-4,3.9-.7,1.4-1,2.8-1,4.2,0,2.9,1,5,3.1,6.4,2,1.4,5,2.1,8.9,2.1s3.7-.2,5-.6,2.4-.9,3.2-1.5,1.3-1.4,1.7-2.2c.3-.9.5-1.8.5-2.8h0l-.2.2ZM583,161.3c0,1.3.2,2.5.5,3.7s.8,2.2,1.5,3c.7.9,1.6,1.6,2.7,2.1,1.1.5,2.5.8,4.2.8,3.1,0,5.4-.9,6.7-2.8s2-4.1,2-6.8-.7-5.2-2-6.9-3.6-2.6-6.8-2.6-5.6.8-6.9,2.5-2,4-2,7h0Z"/>
        <path class="st8" d="M635.7,189.8h-18v-2c.8-.4,1.7-.8,2.5-1.1.9-.3,1.8-.6,2.8-.9v-31.9l-5.3-.6v-2.1c1.6-.6,3.3-1.2,5.1-1.7s3.7-.9,5.5-1.2h2v37.5c1.1.3,2,.6,2.9.9.9.3,1.7.7,2.4,1.1v2h0ZM621.5,135.5c0-1.5.5-2.6,1.4-3.5s2.2-1.3,3.8-1.3,2.8.4,3.7,1.3c.9.9,1.4,2,1.4,3.5s-.5,2.6-1.4,3.4c-.9.8-2.2,1.3-3.7,1.3s-2.8-.4-3.8-1.3-1.4-2-1.4-3.4Z"/>
        <path class="st8" d="M662.7,180.6c0-1.5-.5-2.8-1.4-3.9s-2.2-2-3.6-3c-1.5-.9-3-1.8-4.7-2.7s-3.2-1.9-4.7-3c-1.5-1.2-2.7-2.5-3.6-4s-1.4-3.4-1.4-5.6.3-2.8,1-4.1c.7-1.2,1.6-2.3,2.7-3.2,1.1-.9,2.5-1.6,4-2.1s3.1-.8,4.9-.8c2.9,0,5.3.2,7.2.5s3.7.8,5.4,1.4c-.2,1.7-.5,3.5-.8,5.2-.3,1.8-.7,3.6-1.3,5.4h-2l-3.1-8.3c-.7-.3-1.4-.4-2.2-.5s-1.7-.1-2.5-.1-1.8.2-2.5.5-1.3.8-1.9,1.3-.9,1.2-1.2,1.9-.4,1.4-.4,2.1c0,1.5.5,2.7,1.4,3.8s2.2,2,3.6,2.9,3,1.8,4.7,2.6c1.7.9,3.2,1.8,4.7,2.9,1.5,1.1,2.7,2.3,3.6,3.8.9,1.4,1.4,3.1,1.4,5.1s-.4,3.5-1.2,4.9c-.8,1.5-1.9,2.7-3.2,3.7s-3,1.8-4.8,2.4c-1.8.6-3.7.9-5.8.9s-4.5-.2-6.4-.6-4-1-6.1-1.7c0-1.9.3-3.8.7-5.6s.9-3.6,1.5-5.2h2l3.6,8.8c.6.4,1.3.7,2.2.7h2.3c2.4,0,4.3-.6,5.8-1.9s2.2-2.9,2.2-4.7h0v.2Z"/>
        <path class="st8" d="M675.1,151.3c2-1.3,4.2-2.3,6.5-2.9v-6.9c.7-.5,1.5-1.1,2.5-1.6.9-.5,1.9-1,2.8-1.3h2v10.6h12.2v4.2h-12.2v23.4c0,3.2.5,5.5,1.5,6.9,1,1.3,2.6,2,4.6,2s2.2,0,3.7-.2c1.5-.1,2.7-.4,3.7-.8l.6,1.2c-.4.5-1,1-1.8,1.5s-1.7,1.1-2.7,1.5c-1,.5-2.1.9-3.3,1.2s-2.4.5-3.7.5c-3.2,0-5.7-.9-7.4-2.7s-2.5-4.8-2.5-8.9v-25.7h-6.5v-2.2h0v.2Z"/>
      </g>
    </g>
    <g id="Layer_2" class="st10">
      <path class="st0" d="M108.3,5.7C53.8,6.4,7.2,52.9,6.2,107.4c-.8,42.2,23.8,78.9,59.5,95.7,1.3.6,2.2-1.2,1.1-2-21.9-14.4-36.2-39.5-35.4-67.8,1.2-42.4,36.4-76.4,78.8-76.3,43.2.2,78.2,35.2,78.2,78.5s-14.1,51.6-35.4,65.6c-1.1.8-.2,2.5,1.1,1.9,35.2-16.6,59.5-52.3,59.5-93.8S166.2,4.9,108.3,5.7h0Z"/>
      <circle class="st3" cx="109.8" cy="159.8" r="45.3"/>
      <path class="st5" d="M106.3,62.3c-37.4,1.7-67.8,32-69.7,69.3-1.6,31.5,16.6,58.9,43.3,70.9,1,.4,1.7-.9.8-1.5-13.5-9.5-22.1-25.5-21.3-43.5,1.1-26,22.3-47.1,48.4-48.2,28.8-1.1,52.5,21.9,52.5,50.4s-8.4,32.1-21.4,41.2c-.9.6-.1,1.9.9,1.5,25.6-11.4,43.4-37.1,43.4-66.9s-34.7-75.2-76.8-73.2h-.1Z"/>
    </g>
  </g>
  <g id="logo_2" class="st10">
    <g id="Layer_3">
      <path class="st4" d="M114.2,5.7C20.2,7.9-16.7,112,21.9,174.1c4.8,7.8,16.9,2.4,14.4-6.4-13.6-48.8,19.9-109,79.8-107.7,59.6-1,92.7,58.9,79.2,107.5-2.5,8.9,9.6,14.2,14.5,6.4,39.1-63.3.7-169.9-95.5-168.3h-.1Z"/>
      <circle class="st7" cx="115.8" cy="167.1" r="40.1" transform="translate(-60.3 268.7) rotate(-85.3)"/>
      <path class="st6" d="M112.3,70.1c-66.2,2.8-87,82-52.5,120.7,4,4.5,11.3,0,9.1-5.7s-3.6-13.1-3.3-20.2c1.1-25.9,22.2-46.9,48.1-47.9,37.9-2.8,59.7,37.4,49.2,68-1.9,5.7,5.3,9.9,9.3,5.4,35.7-40.6,10.3-123.5-59.9-120.2h0Z"/>
    </g>
  </g>
  <g id="Logo_3">
    <path class="st2" d="M124.6,3.1C66.9,3.1,20.1,49.9,20.1,107.6s46.8,104.5,104.5,104.5,104.5-46.8,104.5-104.5S182.3,3.1,124.6,3.1ZM124.6,200.2c-43.9,0-79.5-35.6-79.5-79.5S80.7,41.1,124.6,41.1s79.5,35.6,79.5,79.5-35.6,79.5-79.5,79.5Z"/>
    <path class="st9" d="M190.7,92.7c-3.6-8.5-8.8-16.2-15.4-22.8-6.6-6.6-14.3-11.8-22.8-15.4-8.8-3.7-18.2-5.6-27.9-5.6s-19.1,1.9-27.9,5.6c-8.5,3.6-16.2,8.8-22.8,15.4s-11.8,14.3-15.4,22.8c-3.7,8.8-5.6,18.2-5.6,27.9s1.9,19.1,5.6,27.9c3.6,8.5,8.8,16.2,15.4,22.8,6.6,6.6,14.3,11.8,22.8,15.4,8.8,3.7,18.2,5.6,27.9,5.6s19.1-1.9,27.9-5.6c8.5-3.6,16.2-8.8,22.8-15.4,6.6-6.6,11.8-14.3,15.4-22.8,3.7-8.8,5.6-18.2,5.6-27.9s-1.9-19.1-5.6-27.9ZM159.3,165.7c-9.3,9.3-21.6,14.4-34.7,14.4s-25.4-5.1-34.7-14.4-14.4-21.6-14.4-34.7,5.1-25.4,14.4-34.7,21.6-14.4,34.7-14.4,25.4,5.1,34.7,14.4,14.4,21.6,14.4,34.7-5.1,25.4-14.4,34.7Z"/>
    <path class="st1" d="M124.6,89.9c-11,0-21.3,4.3-29.1,12.1s-12.1,18.1-12.1,29.1,4.3,21.3,12.1,29.1c7.8,7.8,18.1,12.1,29.1,12.1s21.3-4.3,29.1-12.1c7.8-7.8,12.1-18.1,12.1-29.1s-4.3-21.3-12.1-29.1c-7.8-7.8-18.1-12.1-29.1-12.1Z"/>
  </g>
</svg>