<?xml version="1.0" encoding="UTF-8"?>
<svg xmlns="http://www.w3.org/2000/svg" xmlns:xlink="http://www.w3.org/1999/xlink" version="1.1" viewBox="0 0 749 215.2">
  <!-- Generator: Adobe Illustrator 29.1.0, SVG Export Plug-In . SVG Version: 2.1.0 Build 142)  -->
  <defs>
    <style>
      .st0 {
        font-family: IBMPlexSerif-Regular, 'IBM Plex Serif';
        font-size: 100px;
      }

      .st0, .st1, .st2 {
        isolation: isolate;
      }

      .st0, .st2, .st3 {
        fill: #494949;
      }

      .st4 {
        fill: #b3c681;
      }

      .st5 {
        fill: #7ac7ee;
      }

      .st6 {
        fill: url(#radial-gradient);
      }

      .st7 {
        fill: #7bc7ed;
      }

      .st8 {
        fill: #bccc7a;
      }

      .st9 {
        fill: url(#radial-gradient1);
      }

      .st10 {
        fill: url(#radial-gradient3);
      }

      .st11 {
        fill: url(#radial-gradient2);
      }

      .st12 {
        fill: url(#radial-gradient5);
      }

      .st13 {
        fill: url(#radial-gradient4);
      }

      .st2 {
        font-family: IBMPlexSerif-Light, 'IBM Plex Serif';
        font-size: 70px;
        font-weight: 300;
      }

      .st14 {
        fill: #ff8e71;
      }

      .st15 {
        display: none;
      }

      .st16 {
        fill: #d3d3d3;
      }
    </style>
    <radialGradient id="radial-gradient" cx="-185.9" cy="-91.6" fx="-185.9" fy="-187.7" r="96.1" gradientTransform="translate(0 218) scale(1 -1)" gradientUnits="userSpaceOnUse">
      <stop offset=".5" stop-color="#b3c681"/>
      <stop offset=".6" stop-color="#b0c47f"/>
      <stop offset=".7" stop-color="#a6be7a"/>
      <stop offset=".8" stop-color="#96b472"/>
      <stop offset=".9" stop-color="#7fa666"/>
      <stop offset="1" stop-color="#739f60"/>
    </radialGradient>
    <radialGradient id="radial-gradient1" cx="-185.6" cy="-94.7" fx="-185.6" fy="-173.7" r="79" gradientTransform="translate(0 218) scale(1 -1)" gradientUnits="userSpaceOnUse">
      <stop offset=".4" stop-color="#78c8ef"/>
      <stop offset=".6" stop-color="#78c5ee"/>
      <stop offset=".8" stop-color="#78bbed"/>
      <stop offset=".9" stop-color="#78abec"/>
      <stop offset="1" stop-color="#78a3ec"/>
    </radialGradient>
    <radialGradient id="radial-gradient2" cx="-186.1" cy="-92.3" fx="-186.1" fy="-168.6" r="82.1" gradientTransform="translate(0 218) scale(1 -1)" gradientUnits="userSpaceOnUse">
      <stop offset=".5" stop-color="#ff8f71"/>
      <stop offset=".7" stop-color="#fc8d70"/>
      <stop offset=".8" stop-color="#f2886f"/>
      <stop offset=".9" stop-color="#e27f6c"/>
      <stop offset="1" stop-color="#cf756a"/>
    </radialGradient>
    <radialGradient id="radial-gradient3" cy="108.8" fy="12.8" xlink:href="#radial-gradient"/>
    <radialGradient id="radial-gradient4" cx="-185.6" cy="108.2" fx="-185.6" fy="23.2" r="85" xlink:href="#radial-gradient1"/>
    <radialGradient id="radial-gradient5" cx="-186.1" cy="108.7" fx="-186.1" fy="30.4" r="84.2" xlink:href="#radial-gradient2"/>
  </defs>
  <g id="Layer_1">
    <g class="st1">
      <text class="st0" transform="translate(207.6 99.4)"><tspan x="0" y="0">A</tspan></text>
      <text class="st0" transform="translate(276.2 99.4)"><tspan x="0" y="0">m</tspan></text>
      <text class="st0" transform="translate(370.2 99.4)"><tspan x="0" y="0">y Do</tspan></text>
      <text class="st0" transform="translate(573.8 99.4)"><tspan x="0" y="0">s</tspan></text>
      <text class="st0" transform="translate(621.9 99.4)"><tspan x="0" y="0">tal</tspan></text>
    </g>
    <g class="st1">
      <text class="st2" transform="translate(207.6 185.5)"><tspan x="0" y="0">P</tspan></text>
      <text class="st2" transform="translate(249.2 185.5)"><tspan x="0" y="0">s</tspan></text>
      <text class="st2" transform="translate(282.4 185.5)"><tspan x="0" y="0">y</tspan></text>
      <text class="st2" transform="translate(318.5 185.5)"><tspan x="0" y="0">c</tspan></text>
      <text class="st2" transform="translate(353.8 185.5)"><tspan x="0" y="0">hologi</tspan></text>
      <text class="st2" transform="translate(552 185.5)"><tspan x="0" y="0">s</tspan></text>
      <text class="st2" transform="translate(585.2 185.5)"><tspan x="0" y="0">t</tspan></text>
    </g>
  </g>
  <g id="Layer_2" class="st15">
    <path class="st4" d="M96.7,21.2C50,21.8,10.1,61.6,9.3,108.3c-.6,36.2,20.3,67.5,50.9,81.9,1.1.5,1.9-1,.9-1.7-18.8-12.3-31-33.8-30.3-58.1,1-36.3,31.1-65.4,67.4-65.3,37,.1,67,30.2,67,67.2s-12.1,44.2-30.3,56.2c-1,.6-.1,2.2.9,1.7,30.1-14.2,50.9-44.8,50.9-80.3S146.3,20.5,96.7,21.2h0Z"/>
    <circle class="st5" cx="98" cy="152.5" r="36"/>
    <path class="st14" d="M95.1,71.2c-31.2,1.4-56.6,26.7-58.2,57.9-1.4,26.3,13.9,49.2,36.2,59.1.8.4,1.4-.8.7-1.3-11.3-7.9-18.5-21.3-17.8-36.3.9-21.7,18.6-39.3,40.4-40.2,24-.9,43.8,18.3,43.8,42.1s-7,26.8-17.8,34.4c-.7.5,0,1.6.7,1.3,21.3-9.5,36.2-31,36.2-55.9s-29-62.8-64.1-61.1h0Z"/>
    <path class="st6" d="M-187.1,225.4c-44.6.6-82.7,38.6-83.5,83.2-.6,34.6,19.4,64.5,48.6,78.3,1,.5,1.8-1,.9-1.6-17.9-11.8-29.6-32.3-28.9-55.5,1-34.7,29.8-62.5,64.4-62.4,35.3.1,64,28.8,64,64.2s-11.5,42.2-29,53.7c-.9.6-.1,2.1.9,1.6,28.8-13.6,48.7-42.8,48.7-76.7s-38.6-85.4-86-84.8h0Z"/>
    <circle class="st9" cx="-185.9" cy="350.9" r="34.4"/>
    <path class="st11" d="M-188.6,273.2c-29.8,1.4-54,25.5-55.6,55.3-1.3,25.1,13.3,47,34.6,56.5.8.3,1.4-.7.7-1.2-10.8-7.6-17.6-20.4-17-34.7.9-20.7,17.8-37.6,38.6-38.4,22.9-.9,41.8,17.4,41.8,40.2s-6.7,25.6-17,32.9c-.7.5,0,1.5.7,1.2,20.4-9.1,34.6-29.6,34.6-53.4s-27.7-60-61.2-58.4h0Z"/>
    <path class="st10" d="M-187.1,25c-44.6.6-82.7,38.6-83.5,83.2-.6,34.6,19.4,64.5,48.6,78.3,1,.5,1.8-1,.9-1.6-17.9-11.8-29.6-32.3-28.9-55.5,1-34.7,29.8-62.5,64.4-62.4,35.3.1,64,28.8,64,64.2s-11.5,42.2-29,53.7c-.9.6-.1,2.1.9,1.6,28.8-13.6,48.7-42.8,48.7-76.7S-139.7,24.3-187.1,25h0Z"/>
    <circle class="st13" cx="-185.9" cy="151" r="37"/>
    <path class="st12" d="M-188.7,71.3c-30.6,1.4-55.4,26.1-57,56.7-1.3,25.8,13.6,48.2,35.5,58,.8.4,1.4-.7.7-1.2-11-7.8-18.1-20.9-17.5-35.6.9-21.3,18.3-38.6,39.6-39.4,23.5-.9,42.9,17.9,42.9,41.2s-6.9,26.2-17.5,33.7c-.7.5,0,1.6.7,1.2,20.9-9.4,35.5-30.4,35.5-54.8s-28.4-61.5-62.8-59.9h0Z"/>
  </g>
  <g id="Layer_3" class="st15">
    <path class="st7" d="M96.1,94c-10.6,2.5-19.8,9.9-24.9,21s-.1.3-.2.5c-5.3,14.3-1.9,29.1,8.1,39.1,4.8,4.8,10.6,8,17,9.6s6.6-1.8,6.6-5.2v-59.6c0-3.5-3.2-6.1-6.6-5.3Z"/>
    <path class="st7" d="M137.9,115c-5.1-11.1-14.3-18.4-24.9-21s-6.6,1.8-6.6,5.3v59.6c0,3.5,3.2,6.1,6.6,5.2,6.4-1.5,12.3-4.8,17-9.6,10-10,13.4-24.7,8.1-39.1s-.1-.3-.2-.5Z"/>
    <path class="st14" d="M162.3,95.5c-3.2-7.5-7.7-14.2-13.5-20-5.8-5.8-12.5-10.3-20-13.5-5.3-2.2-10.8-3.7-16.5-4.4s-6.1,2.1-6.1,5.3v18.3c0,2.7,2,4.9,4.6,5.3,14.2,2.1,26.7,11.3,33.3,25.7,0,.2.1.3.2.5,6.3,17.1,2.3,34.7-9.6,46.5-6.6,6.6-14.9,10.7-23.9,12.1-2.6.4-4.6,2.6-4.6,5.3h0c0,3.3,2.9,5.7,6.1,5.3,5.7-.7,11.2-2.2,16.5-4.4,7.5-3.2,14.2-7.7,20-13.5,5.8-5.8,10.3-12.5,13.5-20,3.3-7.7,4.9-16,4.9-24.4s-1.7-16.7-4.9-24.4Z"/>
    <path class="st14" d="M98.1,171.5c-14.2-2.1-26.7-11.3-33.3-25.7s-.1-.3-.2-.5c-6.3-17.1-2.3-34.7,9.6-46.5,6.6-6.6,14.9-10.7,23.9-12.1s4.6-2.6,4.6-5.3v-18.3c0-3.3-2.9-5.7-6.1-5.3-5.7.7-11.2,2.2-16.5,4.4-7.5,3.2-14.2,7.7-20,13.5-5.8,5.8-10.3,12.5-13.5,20-3.3,7.7-4.9,16-4.9,24.4s1.7,16.7,4.9,24.4c3.2,7.5,7.7,14.2,13.5,20,5.8,5.8,12.5,10.3,20,13.5,5.3,2.2,10.8,3.7,16.5,4.4s6.1-2.1,6.1-5.3h0c0-2.7-2-4.9-4.6-5.3Z"/>
    <path class="st8" d="M102.7,194.4c0-2.7-2.1-5-4.8-5.2-35.4-3.3-63.1-33.1-63.1-69.3s27.7-66,63.1-69.3c2.7-.3,4.8-2.5,4.8-5.2v-13.1c0-8.7-8-15.1-16.5-13.4C44.5,27.3,13,64.2,13,108.5s37,87.4,84,91.2c3.1.2,5.7-2.2,5.7-5.3h0Z"/>
    <path class="st8" d="M106.3,32.2v13.1c0,2.7,2.1,5,4.8,5.2,35.4,3.3,63.1,33.1,63.1,69.3s-27.7,66-63.1,69.3c-2.7.3-4.8,2.5-4.8,5.2h0c0,3.1,2.6,5.5,5.7,5.3,47-3.8,84-43.2,84-91.2S164.6,27.3,122.8,18.8s-16.5,4.7-16.5,13.4Z"/>
  </g>
  <g id="Layer_4" class="st15">
    <path d="M-309.6-57.8c68.7,25.1,121.5,90.2,128.4,163.5,1.1,11.8-.2,11.3-2.9,2.6s0-.2,0-.3c-40.2-174-276.8-207.9-356.3-45.3-29.1,58.2-22,128.9,12.6,182.7,23.1,36.6,58.5,65.5,99.7,79.1,10.7,3.7,19.2,5.2,27.5,8.6.7.4,1.2.7.2,1-9.8.5-19.8-1.5-32.4-4.2-135.3-29.8-197-198.3-115.4-311.7,50.9-75.2,153.5-108.2,238.5-76.1h.2Z"/>
    <path d="M-398.4,4.7c-.8,1.3-2.9,1.8-4.4,2.6-4.1,1.8-11,4.5-18.2,7.7-89.4,38.4-108.4,161.9-30,220.4,44.6,35.6,109.8,35.5,155.3,2,21.1-14.8,36.8-37,46.6-60.9,12.9-29.2,4.2,9.9,0,19.2-23.1,62.4-92.4,98.3-156.6,85.5-123.6-24.3-158.6-186.5-53.9-256.1,15.3-10.5,38.2-18.4,55.4-20.5,1.7-.3,3.7-.4,5.2-.3.4,0,.7.2.7.4h0Z"/>
    <path d="M-325.3,57.9c66.3,42,55.7,142.8-20.4,165.5-6.5,1.9-15.4,3.7-6.1-1.6,3.3-1.9,9.4-5.2,13.5-7.8,9.6-5.8,17.7-13.3,24.4-22.3,22-28.4,21.7-71.5.1-99.7-32.7-44.2-99.5-42.1-132.5.9-4.6,5.8-8.8,13.9-12.3,19.8-2.2,3.8-3.6,5.8-4.2,5.4-.5-.4-.2-3,.9-7.1,1.1-4.3,3.2-10.3,5.3-14.9,21.6-49.4,85.8-67.2,131.1-38.3h.2Z"/>
    <path d="M-339.5,100.6c31.3,27.7,17.9,79.4-22,90.5-14.9,4.2-31.6,1.3-44.2-7.6-5.2-3.6-9.9-8.7-13-12.8-3.3-4.3-5.2-7.6-5-8.5.2-1.2,2.8.5,7.4,3.9,5.2,3.8,12.6,9.4,19.1,12.3,36.4,16.7,75.7-20.5,61.3-57.6-2.8-7.9-9.1-16-14.1-22.2-3.3-4.1-5.5-6.8-5.7-7.8.1-2.7,13,6.8,16,9.8h.2Z"/>
    <path d="M-862.7,825.3c-148.3,0-268.6-120.2-268.6-268.6s120.2-268.6,268.6-268.6,262.2,114,268.3,256.9c.2-4,.3-8,.3-12.1,0-162.2-131.5-293.7-293.7-293.7s-293.7,131.5-293.7,293.7,131.5,293.7,293.7,293.7,19.3-.5,28.7-1.4c-1.2,0-2.4,0-3.7,0Z"/>
    <path d="M-655.8,545.5c0,106.3-86.2,192.4-192.4,192.4s-192.4-86.2-192.4-192.4,81.7-187.9,184.1-192.2c-2.9-.1-5.8-.2-8.7-.2-116.2,0-210.4,94.2-210.4,210.4s94.2,210.4,210.4,210.4,210.4-94.2,210.4-210.4-.3-13.8-1-20.6c0,.9,0,1.7,0,2.6Z"/>
    <path d="M-856.6,432.2c60.4,1.1,108.4,51,107.3,111.3-1.1,60.4-51,108.4-111.3,107.3-58.8-1.1-105.9-48.4-107.3-106.6,0,1.6-.2,3.3-.2,4.9-1.2,66,51.3,120.5,117.3,121.8,66,1.2,120.5-51.3,121.8-117.3,1.2-66-51.3-120.5-117.3-121.8-3.9,0-7.9,0-11.7.4.5,0,1,0,1.5,0Z"/>
  </g>
  <g id="big" class="st15">
    <path d="M-2491.3-226.3c0-325.9,264.2-590,590-590s590,264.2,590,590-13.2,142.4-37.3,206.8c36.7-81.4,57.1-171.7,57.1-266.8,0-359-291-650.1-650.1-650.1s-650.1,291-650.1,650.1,291,650.1,650.1,650.1,13.7-.1,20.6-.3c-316.8-10.4-570.4-270.4-570.4-589.7Z"/>
  </g>
  <g id="medium" class="st15">
    <path d="M-1869.5,190.8c-242.7,0-439.4-196.7-439.4-439.4s196.7-439.4,439.4-439.4,132.9,15.6,190.5,43.3c-69.8-40.5-151-63.8-237.6-63.8-261.7,0-473.9,212.2-473.9,473.9s212.2,473.9,473.9,473.9,346.2-106.6,424-262c-76.8,127.9-216.9,213.4-376.9,213.4Z"/>
  </g>
  <g id="small" class="st15">
    <path d="M-1877.6-533.1c-4.4,0-8.8.1-13.1.3,140.2,6.6,251.9,122.4,251.9,264.2S-1757.3-4-1903.4-4s-257.6-111.6-264.2-251.9c-.2,4.4-.3,8.7-.3,13.1,0,160.4,130,290.3,290.3,290.3s290.3-130,290.3-290.3-130-290.3-290.3-290.3Z"/>
  </g>
  <g id="Layer_8">
    <circle class="st5" cx="-231.8" cy="113" r="30.9"/>
    <circle class="st3" cx="347.7" cy="375.9" r="37.9"/>
    <circle class="st5" cx="108.9" cy="113.8" r="37.5"/>
    <path class="st4" d="M99.2-131.6c-12.4,0-24.4-2.4-35.8-7.2-10.9-4.6-20.8-11.3-29.2-19.7-8.4-8.4-15.1-18.3-19.7-29.2-4.8-11.3-7.2-23.4-7.2-35.8s2.4-24.4,7.2-35.8c4.6-10.9,11.3-20.8,19.7-29.2,8.4-8.4,18.3-15.1,29.2-19.7,11.3-4.8,23.4-7.2,35.8-7.2s24.4,2.4,35.8,7.2c10.9,4.6,20.8,11.3,29.2,19.7,8.4,8.4,15.1,18.3,19.7,29.2,4.8,11.3,7.2,23.4,7.2,35.8s-2.7,25.8-8.1,37.7c-.3.8-1.1,1.2-1.9,1.2-.3,0-.5,0-.8-.2-1-.4-1.5-1.6-1.2-2.6,3.3-8.9,5-18.3,5-27.8s-2.1-21.1-6.2-30.9c-4-9.5-9.7-18-17-25.3-7.3-7.3-15.8-13-25.3-17-9.8-4.1-20.2-6.2-30.9-6.2s-21.1,2.1-30.9,6.2c-9.5,4-18,9.7-25.3,17-7.3,7.3-13,15.8-17,25.3-4.1,9.8-6.2,20.2-6.2,30.9,0,20.8,8,40.4,22.4,55.3,7,7.2,15.2,13,24.4,17.2,9.5,4.3,19.6,6.6,30,6.9,1.1,0,2,1,2,2.1,0,1.1-.9,2-2,2.1-1,0-2,0-2.9,0Z"/>
    <path d="M-4644.4-226.3c0-325.9,264.2-590,590-590s590,264.2,590,590-13.2,142.4-37.3,206.8c36.7-81.4,57.1-171.7,57.1-266.8,0-359-291-650.1-650.1-650.1s-650.1,291-650.1,650.1,291,650.1,650.1,650.1,13.7-.1,20.6-.3c-316.8-10.4-570.4-270.4-570.4-589.7Z"/>
    <path class="st14" d="M102.6-148.8c-9.1,0-18-1.8-26.3-5.3-8-3.4-15.3-8.3-21.5-14.5-6.2-6.2-11.1-13.4-14.5-21.5-3.5-8.3-5.3-17.2-5.3-26.3s1.8-18,5.3-26.3c3.4-8,8.3-15.3,14.5-21.5,6.2-6.2,13.4-11.1,21.5-14.5,8.3-3.5,17.2-5.3,26.3-5.3s23.6,3.1,33.9,9.1c1,.6,1.3,1.8.8,2.8-.4.7-1.1,1.1-1.8,1.1-.3,0-.6,0-.9-.2-8-3.8-16.5-5.8-25.4-5.8s-15.6,1.5-22.8,4.6c-7,3-13.3,7.2-18.6,12.6-5.4,5.4-9.6,11.7-12.6,18.6-3.1,7.2-4.6,14.9-4.6,22.8s1.5,15.6,4.6,22.8c3,7,7.2,13.3,12.6,18.6,5.4,5.4,11.7,9.6,18.6,12.6,7.2,3.1,14.9,4.6,22.8,4.6s20.4-2.7,29.3-7.8c8.6-5,15.9-12.1,21-20.6.4-.6,1.1-1,1.8-1s.7,0,1,.3c1,.5,1.4,1.7.9,2.7-5.5,11-14,20.4-24.4,27-10.8,6.8-23.2,10.4-36,10.4Z"/>
    <path d="M-4022.5,190.8c-242.7,0-439.4-196.7-439.4-439.4s196.7-439.4,439.4-439.4,132.9,15.6,190.5,43.3c-69.8-40.5-151-63.8-237.6-63.8-261.7,0-473.9,212.2-473.9,473.9s212.2,473.9,473.9,473.9,346.2-106.6,424-262c-76.8,127.9-216.9,213.4-376.9,213.4Z"/>
    <path class="st5" d="M109.1-172.4c-12.7,0-24.6-4.9-33.5-13.9-9-9-13.9-20.9-13.9-33.5s0-1.4,0-2.1c0-1.2,1.1-2.2,2.3-2.2h0c1.2,0,2.3,1,2.3,2.2.5,10,4.7,19.2,11.9,26.2,7.2,6.9,16.8,10.7,26.8,10.7s20.1-4,27.4-11.4c7.3-7.3,11.4-17.1,11.4-27.4s-3.8-19.5-10.7-26.8c-6.9-7.2-16.2-11.5-26.2-11.9-1.2,0-2.2-1.1-2.2-2.3,0-1.2,1-2.3,2.2-2.3.8,0,1.5,0,2.1,0,12.7,0,24.6,4.9,33.5,13.9,9,9,13.9,20.9,13.9,33.5s-4.9,24.6-13.9,33.5-20.9,13.9-33.5,13.9Z"/>
    <path class="st4" d="M98,200.8c-12.4,0-24.5-2.4-35.9-7.2-11-4.6-20.8-11.3-29.3-19.7-8.5-8.5-15.1-18.3-19.7-29.3-4.8-11.4-7.2-23.4-7.2-35.9s2.4-24.5,7.2-35.9c4.6-11,11.3-20.8,19.7-29.3,8.5-8.5,18.3-15.1,29.3-19.7,11.4-4.8,23.4-7.2,35.9-7.2s24.5,2.4,35.9,7.2c11,4.6,20.8,11.3,29.3,19.7,8.5,8.5,15.1,18.3,19.7,29.3,4.8,11.4,7.2,23.4,7.2,35.9s-2.7,25.9-8.1,37.8c-.3.8-1.1,1.2-1.9,1.2-.3,0-.5,0-.8-.2-1-.4-1.5-1.6-1.2-2.6,3.3-8.9,5-18.3,5-27.9s-2.1-21.2-6.3-31c-4-9.5-9.8-18-17.1-25.3-7.3-7.3-15.8-13.1-25.3-17.1-9.8-4.2-20.2-6.3-31-6.3s-21.2,2.1-31,6.3c-9.5,4-18,9.8-25.3,17.1-7.3,7.3-13.1,15.8-17.1,25.3-4.2,9.8-6.3,20.2-6.3,31,0,20.8,8,40.5,22.5,55.4,7,7.3,15.3,13,24.5,17.2,9.5,4.3,19.6,6.6,30.1,7,1.1,0,2,1,2,2.1,0,1.1-.9,2-2,2.1-1,0-2,0-2.9,0Z"/>
    <path class="st14" d="M102.4,180.1c-8.7,0-17.1-1.7-25-5-7.6-3.2-14.5-7.9-20.4-13.8-5.9-5.9-10.5-12.8-13.8-20.4-3.3-7.9-5-16.3-5-25s1.7-17.1,5-25c3.2-7.6,7.9-14.5,13.8-20.4,5.9-5.9,12.8-10.5,20.4-13.8,7.9-3.3,16.3-5,25-5s22.4,3,32.2,8.6c.9.5,1.2,1.7.8,2.6-.4.7-1,1-1.7,1-.3,0-.6,0-.9-.2-7.6-3.6-15.7-5.5-24.2-5.5s-14.8,1.5-21.7,4.4c-6.6,2.8-12.6,6.8-17.7,11.9-5.1,5.1-9.1,11.1-11.9,17.7-2.9,6.9-4.4,14.2-4.4,21.7s1.5,14.8,4.4,21.7c2.8,6.6,6.8,12.6,11.9,17.7,5.1,5.1,11.1,9.1,17.7,11.9,6.9,2.9,14.2,4.4,21.7,4.4s19.4-2.6,27.8-7.4c8.2-4.7,15.1-11.5,19.9-19.6.4-.6,1-1,1.7-1s.6,0,.9.2c.9.5,1.3,1.7.8,2.6-5.3,10.5-13.3,19.4-23.2,25.6-10.2,6.4-22,9.9-34.2,9.9Z"/>
    <path class="st5" d="M288,626.1c-10.4,0-20.1-4-27.5-11.4-7.3-7.3-11.4-17.1-11.4-27.5s0-1.1,0-1.8c0-1,.9-1.8,1.9-1.8h0c1,0,1.9.8,1.9,1.8.4,8.2,3.9,15.8,9.8,21.4,5.9,5.7,13.7,8.8,21.9,8.8s16.5-3.3,22.5-9.3,9.3-14,9.3-22.5-3.1-16-8.8-21.9c-5.7-5.9-13.3-9.4-21.4-9.8-1,0-1.8-.9-1.8-1.9,0-1,.8-1.9,1.8-1.9.6,0,1.2,0,1.8,0,10.4,0,20.1,4,27.5,11.4,7.3,7.3,11.4,17.1,11.4,27.5s-4,20.1-11.4,27.5c-7.3,7.3-17.1,11.4-27.5,11.4Z"/>
    <path class="st4" d="M-242.4,193.5c-11.6,0-22.8-2.3-33.4-6.8-10.2-4.3-19.4-10.5-27.3-18.4-7.9-7.9-14.1-17.1-18.4-27.3-4.5-10.6-6.8-21.8-6.8-33.4s2.3-22.8,6.8-33.4c4.3-10.2,10.5-19.4,18.4-27.3,7.9-7.9,17.1-14.1,27.3-18.4,10.6-4.5,21.8-6.8,33.4-6.8s22.8,2.3,33.4,6.8c10.2,4.3,19.4,10.5,27.3,18.4,7.9,7.9,14.1,17.1,18.4,27.3,4.5,10.6,6.8,21.8,6.8,33.4s-2.5,24.1-7.5,35.3c-.3.7-1,1.1-1.8,1.1-.2,0-.5,0-.7-.1-1-.4-1.4-1.5-1.1-2.5,3.1-8.3,4.7-17.1,4.7-26s-2-19.8-5.8-28.9c-3.7-8.8-9.1-16.8-15.9-23.6-6.8-6.8-14.8-12.2-23.6-15.9-9.2-3.9-18.9-5.8-28.9-5.8s-19.8,2-28.9,5.8c-8.8,3.7-16.8,9.1-23.6,15.9-6.8,6.8-12.2,14.8-15.9,23.6-3.9,9.2-5.8,18.9-5.8,28.9,0,19.4,7.4,37.8,21,51.7,6.6,6.8,14.2,12.2,22.8,16,8.8,4,18.3,6.2,28,6.5,1,0,1.9.9,1.9,1.9,0,1-.8,1.9-1.9,1.9-1,0-1.8,0-2.7,0Z"/>
    <path class="st14" d="M-237.1,170.6c-7.5,0-14.8-1.5-21.7-4.4-6.6-2.8-12.6-6.8-17.7-12-5.1-5.1-9.1-11.1-12-17.7-2.9-6.9-4.4-14.2-4.4-21.7s1.5-14.8,4.4-21.7c2.8-6.6,6.8-12.6,12-17.7,5.1-5.1,11.1-9.1,17.7-12,6.9-2.9,14.2-4.4,21.7-4.4s19.5,2.6,28,7.5c.8.5,1.1,1.5.7,2.3-.3.6-.9.9-1.5.9-.2,0-.5,0-.7-.2-6.6-3.2-13.6-4.8-21-4.8s-12.9,1.3-18.9,3.8c-5.8,2.4-10.9,5.9-15.4,10.4-4.4,4.4-7.9,9.6-10.4,15.4-2.5,6-3.8,12.3-3.8,18.9s1.3,12.9,3.8,18.9c2.4,5.8,5.9,10.9,10.4,15.4,4.4,4.4,9.6,7.9,15.4,10.4,6,2.5,12.3,3.8,18.9,3.8s16.9-2.2,24.2-6.5c7.1-4.1,13.1-10,17.3-17.1.3-.5.9-.8,1.5-.8s.6,0,.8.2c.8.4,1.1,1.4.7,2.3-4.6,9.1-11.6,16.8-20.2,22.3-8.9,5.6-19.2,8.6-29.7,8.6Z"/>
    <path class="st3" d="M341.3,468c-12.4,0-24.5-2.4-35.9-7.2-11-4.6-20.8-11.3-29.3-19.7-8.5-8.5-15.1-18.3-19.7-29.3-4.8-11.4-7.2-23.4-7.2-35.9s2.4-24.5,7.2-35.9c4.6-11,11.3-20.8,19.7-29.3,8.5-8.5,18.3-15.1,29.3-19.7,11.4-4.8,23.4-7.2,35.9-7.2s24.5,2.4,35.9,7.2c11,4.6,20.8,11.3,29.3,19.7,8.5,8.5,15.1,18.3,19.7,29.3,4.8,11.4,7.2,23.4,7.2,35.9s-2.7,25.9-8.1,37.8c-.3.8-1.1,1.2-1.9,1.2-.3,0-.5,0-.8-.2-1-.4-1.5-1.6-1.2-2.6,3.3-8.9,5-18.3,5-27.9s-2.1-21.2-6.3-31c-4-9.5-9.8-18-17.1-25.3-7.3-7.3-15.8-13.1-25.3-17.1-9.8-4.2-20.2-6.3-31-6.3s-21.2,2.1-31,6.3c-9.5,4-18,9.8-25.3,17.1-7.3,7.3-13.1,15.8-17.1,25.3-4.2,9.8-6.3,20.2-6.3,31,0,20.8,8,40.5,22.5,55.4,7,7.3,15.3,13,24.5,17.2,9.5,4.3,19.6,6.6,30.1,7,1.1,0,2,1,2,2.1,0,1.1-.9,2-2,2.1-1,0-2,0-2.9,0Z"/>
    <path class="st3" d="M346.2,455.8c-9.8,0-19.4-1.9-28.3-5.7-8.7-3.7-16.5-8.9-23.1-15.6-6.7-6.7-11.9-14.5-15.6-23.1-3.8-9-5.7-18.5-5.7-28.3s1.9-19.4,5.7-28.3c3.7-8.7,8.9-16.5,15.6-23.1,6.7-6.7,14.5-11.9,23.1-15.6,9-3.8,18.5-5.7,28.3-5.7s25.5,3.4,36.5,9.8c1,.6,1.4,1.9.9,3-.4.8-1.2,1.2-2,1.2-.3,0-.7,0-1-.2-8.6-4.1-17.8-6.2-27.4-6.2s-16.8,1.7-24.6,5c-7.5,3.2-14.3,7.7-20.1,13.5-5.8,5.8-10.4,12.6-13.5,20.1-3.3,7.8-5,16.1-5,24.6s1.7,16.8,5,24.6c3.2,7.5,7.7,14.3,13.5,20.1,5.8,5.8,12.6,10.4,20.1,13.5,7.8,3.3,16.1,5,24.6,5s22-2.9,31.6-8.5c9.3-5.4,17.1-13.1,22.6-22.2.4-.7,1.2-1.1,1.9-1.1s.7,0,1.1.3c1.1.6,1.5,1.9.9,3-6,11.9-15.1,22-26.4,29.1-11.6,7.3-25,11.2-38.8,11.2Z"/>
    <path class="st3" d="M352.5,437.2c-15,0-29.1-5.8-39.8-16.5-10.6-10.6-16.5-24.7-16.5-39.8s0-1.6,0-2.5c0-1.5,1.3-2.6,2.8-2.6h0c1.5,0,2.7,1.2,2.8,2.6.6,11.8,5.6,22.8,14.1,31,8.6,8.2,19.9,12.7,31.8,12.7s23.8-4.8,32.5-13.5c8.7-8.7,13.5-20.2,13.5-32.5s-4.5-23.2-12.7-31.8c-8.2-8.6-19.2-13.6-31-14.1-1.5,0-2.6-1.3-2.6-2.8,0-1.5,1.2-2.7,2.6-2.8.9,0,1.7,0,2.5,0,15,0,29.1,5.8,39.8,16.5,10.6,10.6,16.5,24.7,16.5,39.8s-5.8,29.1-16.5,39.8c-10.6,10.6-24.7,16.5-39.8,16.5Z"/>
    <path d="M-4030.7-533.1c-4.4,0-8.8.1-13.1.3,140.2,6.6,251.9,122.4,251.9,264.2S-3910.4-4-4056.5-4s-257.6-111.6-264.2-251.9c-.2,4.4-.3,8.7-.3,13.1,0,160.4,130,290.3,290.3,290.3s290.3-130,290.3-290.3-130-290.3-290.3-290.3Z"/>
    <g id="gcV68f.tif">
      <image id="Layer_0" width="33" height="95" transform="translate(-1385.6 -842.4) scale(14.4)" xlink:href="logoIBM_smaller-1.png"/>
    </g>
    <circle class="st16" cx="-59.1" cy="123.4" r="14.6"/>
  </g>
</svg>